<?xml version="1.0" encoding="UTF-8" standalone="no"?>
<!-- Created with Inkscape (http://www.inkscape.org/) -->

<svg
   xmlns:dc="http://purl.org/dc/elements/1.1/"
   xmlns:cc="http://creativecommons.org/ns#"
   xmlns:rdf="http://www.w3.org/1999/02/22-rdf-syntax-ns#"
   xmlns:svg="http://www.w3.org/2000/svg"
   xmlns="http://www.w3.org/2000/svg"
   xmlns:sodipodi="http://sodipodi.sourceforge.net/DTD/sodipodi-0.dtd"
   xmlns:inkscape="http://www.inkscape.org/namespaces/inkscape"
   width="48px"
   height="48px"
   id="svg5640"
   version="1.1"
   inkscape:version="0.48.5 r10040"
   sodipodi:docname="book.svg">
  <defs
     id="defs5642">
    <inkscape:perspective
       sodipodi:type="inkscape:persp3d"
       inkscape:vp_x="-0.85714286 : 33.428572 : 1"
       inkscape:vp_y="0 : 1000 : 0"
       inkscape:vp_z="49.857143 : 24.428571 : 1"
       inkscape:persp3d-origin="24 : 16 : 1"
       id="perspective5680" />
  </defs>
  <sodipodi:namedview
     id="base"
     pagecolor="#ffffff"
     bordercolor="#666666"
     borderopacity="1.0"
     inkscape:pageopacity="0.0"
     inkscape:pageshadow="2"
     inkscape:zoom="7"
     inkscape:cx="75.575108"
     inkscape:cy="8.7167817"
     inkscape:current-layer="layer1"
     showgrid="true"
     inkscape:grid-bbox="true"
     inkscape:document-units="px"
     inkscape:window-width="1920"
     inkscape:window-height="1136"
     inkscape:window-x="1919"
     inkscape:window-y="-15"
     inkscape:window-maximized="1" />
  <metadata
     id="metadata5645">
    <rdf:RDF>
      <cc:Work
         rdf:about="">
        <dc:format>image/svg+xml</dc:format>
        <dc:type
           rdf:resource="http://purl.org/dc/dcmitype/StillImage" />
        <dc:title></dc:title>
      </cc:Work>
    </rdf:RDF>
  </metadata>
  <g
     id="layer1"
     inkscape:label="Layer 1"
     inkscape:groupmode="layer">
    <g
       id="g6565"
       transform="translate(-0.80812204,0.50507627)">
      <path
         sodipodi:nodetypes="sssssssss"
         inkscape:connector-curvature="0"
         id="rect6430-5"
         d="m 30.586676,10.081353 12.939594,7.153684 c 0.484839,0.268044 0.636104,0.987624 0.189559,1.315518 L 22.916428,33.823397 c -0.446546,0.327892 -1.613047,0.296134 -2.073132,-0.01247 L 6.3379639,24.081353 C 5.8778789,23.772747 6.2242113,22.992327 6.7039893,22.715327 L 29.22065,9.7153278 c 0.479778,-0.277 0.881187,0.097981 1.366026,0.3660252 z"
         style="fill:#ffeeaa;stroke:#aa8800;stroke-width:0.48199999;stroke-linecap:square;stroke-linejoin:miter;stroke-miterlimit:4;stroke-opacity:1;stroke-dashoffset:0" />
      <path
         sodipodi:nodetypes="sssssssss"
         inkscape:connector-curvature="0"
         id="rect6430-6"
         d="m 30.038497,10.803771 12.530549,6.552433 c 0.469512,0.245516 0.615996,0.904617 0.183567,1.204952 L 22.610719,32.550353 c -0.432429,0.300333 -1.562055,0.271244 -2.007597,-0.01143 L 6.5563311,23.627104 C 6.1107902,23.344436 6.4461744,22.629609 6.9107857,22.37589 L 28.715653,10.468509 c 0.464611,-0.253718 0.853332,0.08974 1.322844,0.335262 z"
         style="fill:#ffffff;stroke:#cccccc;stroke-width:0.28254163;stroke-miterlimit:4;stroke-dasharray:none" />
      <path
         sodipodi:nodetypes="sssssssss"
         inkscape:connector-curvature="0"
         id="rect6430-6-6"
         d="m 30.109925,10.214227 12.530549,6.552433 c 0.469512,0.245516 0.615996,0.904617 0.183567,1.204952 L 22.682147,31.960809 c -0.432429,0.300333 -1.562055,0.271244 -2.007597,-0.01143 L 6.627759,23.03756 C 6.182218,22.754892 6.517602,22.040065 6.982214,21.786346 L 28.787081,9.8789652 c 0.464611,-0.253718 0.853332,0.08974 1.322844,0.3352618 z"
         style="fill:#ffffff;stroke:#cccccc;stroke-width:0.28254163;stroke-miterlimit:4;stroke-dasharray:none" />
      <path
         sodipodi:nodetypes="sssssssss"
         inkscape:connector-curvature="0"
         id="rect6430-6-6-6"
         d="M 30.074211,9.6246805 42.60476,16.177114 c 0.469512,0.245516 0.615996,0.904617 0.183567,1.204952 L 22.646433,31.371263 c -0.432429,0.300333 -1.562055,0.271244 -2.007597,-0.01143 L 6.5920451,22.448014 C 6.1465041,22.165346 6.4818881,21.450519 6.9465001,21.1968 L 28.751367,9.2894185 c 0.464611,-0.253718 0.853332,0.08974 1.322844,0.335262 z"
         style="fill:#ffffff;stroke:#cccccc;stroke-width:0.28254163;stroke-miterlimit:4;stroke-dasharray:none" />
      <path
         sodipodi:nodetypes="sssssssss"
         inkscape:connector-curvature="0"
         id="rect6430-6-6-6-4"
         d="m 30.133917,8.7712952 12.530549,6.5524328 c 0.469512,0.245516 0.615996,0.904617 0.183567,1.204952 L 22.706139,30.517877 c -0.432429,0.300333 -1.562055,0.271244 -2.007597,-0.01143 L 6.6517502,21.594628 C 6.2062092,21.31196 6.5415932,20.597133 7.0062052,20.343414 L 28.811073,8.4360332 c 0.464611,-0.253718 0.853332,0.08974 1.322844,0.335262 z"
         style="fill:#ffffff;stroke:#cccccc;stroke-width:0.28254163;stroke-miterlimit:4;stroke-dasharray:none" />
      <path
         sodipodi:nodetypes="sssssssss"
         inkscape:connector-curvature="0"
         id="rect6430"
         d="m 30.583632,6.920381 12.939594,7.153683 c 0.484839,0.268044 0.636104,0.987624 0.189559,1.315518 L 22.913384,30.662425 c -0.446546,0.327892 -1.613047,0.296134 -2.073132,-0.01247 L 6.3349203,20.920381 C 5.8748353,20.611775 6.2211677,19.831355 6.7009457,19.554355 L 29.217606,6.5543556 c 0.479778,-0.277 0.881187,0.097981 1.366026,0.3660254 z"
         style="fill:#ffeeaa;stroke:#aa8800;stroke-width:0.48199999;stroke-linecap:square;stroke-linejoin:miter;stroke-miterlimit:4;stroke-opacity:1;stroke-dashoffset:0" />
      <path
         sodipodi:nodetypes="csc"
         inkscape:connector-curvature="0"
         id="path6491"
         d="m 6.1234681,20.663778 c 0,0 -0.194284,0.274218 -0.1964287,1.522321 -0.00183,1.065089 0.2068889,1.572829 0.2068889,1.572829"
         style="fill:#504416;stroke:#a0892c;stroke-width:0.5;stroke-linecap:butt;stroke-linejoin:miter;stroke-miterlimit:4;stroke-opacity:1;stroke-dasharray:none" />
    </g>
    <text
       sodipodi:linespacing="125%"
       id="text3988-3-4-9-3"
       y="44.825714"
       x="28.512545"
       style="font-size:40px;font-style:normal;font-variant:normal;font-weight:500;font-stretch:normal;text-align:start;line-height:125%;letter-spacing:0px;word-spacing:0px;writing-mode:lr-tb;text-anchor:start;fill:#000000;fill-opacity:1;stroke:none;font-family:Computer Modern;-inkscape-font-specification:Computer Modern Medium"
       xml:space="preserve"><tspan
         style="font-size:20px"
         y="44.825714"
         x="28.512545"
         id="tspan3990-2-0-2-6"
         sodipodi:role="line">D</tspan></text>
  </g>
</svg>
