<?xml version="1.0" encoding="UTF-8" standalone="no"?>
<!-- Created with Inkscape (http://www.inkscape.org/) -->

<svg
   xmlns:dc="http://purl.org/dc/elements/1.1/"
   xmlns:cc="http://creativecommons.org/ns#"
   xmlns:rdf="http://www.w3.org/1999/02/22-rdf-syntax-ns#"
   xmlns:svg="http://www.w3.org/2000/svg"
   xmlns="http://www.w3.org/2000/svg"
   xmlns:sodipodi="http://sodipodi.sourceforge.net/DTD/sodipodi-0.dtd"
   xmlns:inkscape="http://www.inkscape.org/namespaces/inkscape"
   width="48px"
   height="48px"
   id="svg5640"
   version="1.1"
   inkscape:version="0.48.5 r10040"
   sodipodi:docname="manpage.svg">
  <defs
     id="defs5642">
    <inkscape:perspective
       sodipodi:type="inkscape:persp3d"
       inkscape:vp_x="-0.85714286 : 33.428572 : 1"
       inkscape:vp_y="0 : 1000 : 0"
       inkscape:vp_z="49.857143 : 24.428571 : 1"
       inkscape:persp3d-origin="24 : 16 : 1"
       id="perspective5680" />
  </defs>
  <sodipodi:namedview
     id="base"
     pagecolor="#ffffff"
     bordercolor="#666666"
     borderopacity="1.0"
     inkscape:pageopacity="0.0"
     inkscape:pageshadow="2"
     inkscape:zoom="14"
     inkscape:cx="14.803897"
     inkscape:cy="24.975649"
     inkscape:current-layer="layer1"
     showgrid="true"
     inkscape:grid-bbox="true"
     inkscape:document-units="px"
     inkscape:window-width="1920"
     inkscape:window-height="1136"
     inkscape:window-x="1919"
     inkscape:window-y="-15"
     inkscape:window-maximized="1" />
  <metadata
     id="metadata5645">
    <rdf:RDF>
      <cc:Work
         rdf:about="">
        <dc:format>image/svg+xml</dc:format>
        <dc:type
           rdf:resource="http://purl.org/dc/dcmitype/StillImage" />
        <dc:title></dc:title>
      </cc:Work>
    </rdf:RDF>
  </metadata>
  <g
     id="layer1"
     inkscape:label="Layer 1"
     inkscape:groupmode="layer">
    <path
       style="fill:#afe9af;stroke:#217821;stroke-width:0.62585789000000003;stroke-linecap:square;stroke-linejoin:miter;stroke-miterlimit:4;stroke-opacity:1;stroke-dashoffset:0"
       d="m 27.85746,11.700357 18.891214,3.940842 c 0.707843,0.147661 1.1796,0.98049 0.754441,1.555558 L 27.69984,43.98258 c -0.425161,0.575066 -1.886281,0.978344 -2.579387,0.771113 L 3.2685417,38.22016 C 2.5754354,38.012927 2.6976029,36.916043 3.184112,36.39133 L 26.016678,11.765801 c 0.48651,-0.524714 1.132939,-0.213105 1.840782,-0.06544 z"
       id="rect6430-5"
       inkscape:connector-curvature="0"
       sodipodi:nodetypes="sssssssss" />
    <path
       style="fill:#ffffff;stroke:#cccccc;stroke-width:0.59326321;stroke-linecap:square;stroke-linejoin:miter;stroke-miterlimit:4;stroke-opacity:1;stroke-dashoffset:0"
       d="m 27.059412,12.709249 18.097256,3.447313 c 0.688774,0.131203 1.075546,0.942854 0.661997,1.491791 L 26.88137,42.785282 c -0.413548,0.548936 -1.608989,0.953713 -2.27549,0.748365 L 3.1141448,36.912006 C 2.4476415,36.706655 1.8250937,36.371659 2.3138759,35.880064 L 25.253121,12.808834 c 0.488781,-0.491594 1.117519,-0.230782 1.806291,-0.09958 z"
       id="rect6430-3"
       inkscape:connector-curvature="0"
       sodipodi:nodetypes="sssssssss" />
    <path
       style="fill:#ffffff;stroke:#cccccc;stroke-width:0.59326321;stroke-linecap:square;stroke-linejoin:miter;stroke-miterlimit:4;stroke-opacity:1;stroke-dashoffset:0"
       d="m 26.598956,11.265476 18.097257,3.447313 c 0.688773,0.131203 1.075546,0.942854 0.661996,1.491791 L 26.420915,41.34151 c -0.413549,0.548935 -1.608989,0.953713 -2.27549,0.748364 L 2.6536916,35.468232 C 1.9871883,35.262882 1.3646405,34.927885 1.8534227,34.436291 L 24.792665,11.365062 c 0.488782,-0.491595 1.11752,-0.230783 1.806291,-0.09959 z"
       id="rect6430-3-7"
       inkscape:connector-curvature="0"
       sodipodi:nodetypes="sssssssss" />
    <path
       style="fill:#ffffff;stroke:#cccccc;stroke-width:0.59326321;stroke-linecap:square;stroke-linejoin:miter;stroke-miterlimit:4;stroke-opacity:1;stroke-dashoffset:0"
       d="m 26.138502,9.8217027 18.097257,3.4473133 c 0.688774,0.131203 1.075546,0.942854 0.661996,1.491791 L 25.960461,39.897738 c -0.413548,0.548935 -1.608989,0.953713 -2.27549,0.748364 L 2.193238,34.02446 C 1.5267348,33.81911 0.904187,33.484113 1.3929691,32.992519 L 24.332211,9.9212885 c 0.488782,-0.4915945 1.11752,-0.2307825 1.806291,-0.099586 z"
       id="rect6430-3-7-6"
       inkscape:connector-curvature="0"
       sodipodi:nodetypes="sssssssss" />
    <path
       style="fill:#ffffff;stroke:#cccccc;stroke-width:0.59326321;stroke-linecap:square;stroke-linejoin:miter;stroke-miterlimit:4;stroke-opacity:1;stroke-dashoffset:0"
       d="m 25.677068,8.3748537 18.097256,3.4473133 c 0.688774,0.131203 1.075546,0.942854 0.661997,1.491791 L 25.499027,38.450889 c -0.413549,0.548935 -1.608989,0.953713 -2.275491,0.748365 L 1.7318035,32.577612 C 1.0653002,32.372261 0.44275282,32.037264 0.93153432,31.54567 L 23.870777,8.4744394 c 0.488781,-0.4915944 1.117519,-0.2307825 1.806291,-0.099586 z"
       id="rect6430-3-7-6-6"
       inkscape:connector-curvature="0"
       sodipodi:nodetypes="sssssssss" />
    <path
       style="fill:#afe9af;stroke:#217821;stroke-width:0.62585789000000003;stroke-linecap:square;stroke-linejoin:miter;stroke-miterlimit:4;stroke-opacity:1;stroke-dashoffset:0"
       d="m 25.873769,5.4934185 18.891214,3.9408404 c 0.707843,0.1476606 1.1796,0.9804901 0.754441,1.5555571 L 25.71615,37.775641 c -0.425162,0.575066 -1.886282,0.978343 -2.579387,0.771113 L 1.2848517,32.01322 C 0.59174541,31.805987 0.71391286,30.709103 1.2004221,30.18439 L 24.032988,5.5588612 c 0.486509,-0.5247132 1.132939,-0.2131038 1.840781,-0.065443 z"
       id="rect6430"
       inkscape:connector-curvature="0"
       sodipodi:nodetypes="sssssssss" />
    <path
       style="fill:#504416;stroke:#217821;stroke-width:0.82216798999999985;stroke-linecap:butt;stroke-linejoin:miter;stroke-miterlimit:4;stroke-opacity:1;stroke-dasharray:none"
       d="m 0.92102174,31.775991 c 0,0 -0.0677567,0.617759 0.71931056,3.094807 0.6716573,2.113831 1.2521196,3.041999 1.2521196,3.041999"
       id="path6491"
       inkscape:connector-curvature="0"
       sodipodi:nodetypes="csc" />
    <text
       sodipodi:linespacing="125%"
       id="text3988-3-4-9-3"
       y="46.254284"
       x="12.839611"
       style="font-size:70.07518768px;font-style:normal;font-variant:normal;font-weight:500;font-stretch:normal;text-align:start;line-height:125%;letter-spacing:0px;word-spacing:0px;writing-mode:lr-tb;text-anchor:start;fill:#000000;fill-opacity:1;stroke:none;font-family:Computer Modern;-inkscape-font-specification:Computer Modern Medium"
       xml:space="preserve"><tspan
         style="font-size:16px;fill:#000000"
         y="46.254284"
         x="12.839611"
         id="tspan3990-2-0-2-6"
         sodipodi:role="line">man</tspan></text>
  </g>
</svg>
